<svg width="240" height="240" viewBox="0 0 512 512" fill="none" xmlns="http://www.w3.org/2000/svg"><circle cx="256" cy="256" r="240" stroke="#06B6D4" stroke-width="3" fill="none"/><circle cx="256" cy="256" r="200" stroke="#F59E0B" stroke-width="3" fill="none"/><circle cx="256" cy="256" r="160" stroke="#10B981" stroke-width="3" fill="none"/><path d="M256 140L185 170V250C185 310 210 360 256 395C302 360 327 310 327 250V170L256 140Z" fill="#4B5563"/><path d="M256 140L185 170V250C185 310 210 360 256 395C302 360 327 310 327 250V170L256 140Z" fill="url(#shieldGradient)" opacity="0.3"/><path d="M256 140L185 170V250C185 310 210 360 256 395C302 360 327 310 327 250V170L256 140Z" stroke="#374151" stroke-width="3" fill="none" stroke-linejoin="round"/><path d="M256 200L220 225V265L256 290L292 265V225L256 200Z" fill="#6B7280" stroke="#9CA3AF" stroke-width="2" stroke-linejoin="round"/><path d="M256 210L235 222V258L256 270L277 258V222L256 210Z" fill="#9CA3AF"/><defs><linearGradient id="shieldGradient" x1="256" y1="140" x2="256" y2="395"><stop offset="0%" stop-color="#ffffff"/><stop offset="100%" stop-color="#000000"/></linearGradient></defs></svg>